<svg xmlns="http://www.w3.org/2000/svg" width="512" height="512" style=""><rect id="backgroundrect" width="100%" height="100%" x="0" y="0" fill="none" stroke="none"/><g class="currentLayer" style=""><title>Layer 1</title><path d="M256 48C141.6 48 48 141.6 48 256s93.6 208 208 208 208-93.6 208-208S370.4 48 256 48zm0 62.4c34.3 0 62.4 28.1 62.4 62.4s-28.1 62.4-62.4 62.4-62.4-28.1-62.4-62.4 28.1-62.4 62.4-62.4zm0 300.4c-52 0-97.8-27-124.8-66.6 1-41.6 83.2-64.5 124.8-64.5s123.8 22.9 124.8 64.5c-27 39.5-72.8 66.6-124.8 66.6z" id="svg_1" class="selected" fill-opacity="1" fill="#3f3f79"/></g></svg>